<?xml version="1.0" encoding="iso-8859-1"?>
<!-- Generator: Adobe Illustrator 19.0.0, SVG Export Plug-In . SVG Version: 6.00 Build 0)  -->
<svg version="1.1" id="Capa_1" xmlns="http://www.w3.org/2000/svg" xmlns:xlink="http://www.w3.org/1999/xlink" x="0px" y="0px"
	 viewBox="0 0 512.003 512.003" style="enable-background:new 0 0 512.003 512.003;" xml:space="preserve">
<path style="fill:#F7A6A6;" d="M8.525,204.792l6.912,51.867l1.468,10.991c13.978,104.81,99.511,187.876,205.131,192.885
	c3.704,0.179,7.441,0.265,11.188,0.265h45.552c3.746,0,7.484-0.085,11.188-0.265c105.621-5.009,191.153-88.075,205.131-192.86
	l1.468-10.991l6.912-51.893H8.525z"/>
<path style="fill:#F59A9A;" d="M460.807,204.792C455.32,336.491,354.615,418.721,283.376,460.69
	c2.202-0.043,4.403-0.051,6.588-0.154c105.621-5.009,191.153-88.075,205.131-192.86l1.468-10.991l6.912-51.893H460.807z"/>
<path style="fill:#E6E6E6;" d="M278.52,392.532h-45.04c-110.502,0-205.191-79.021-224.955-187.74h494.95
	C483.711,313.51,389.022,392.54,278.52,392.532z"/>
<path style="fill:#F9BC61;" d="M42.66,119.456L42.66,119.456C39.741,101.953,26.028,88.24,8.525,85.321l0,0
	c17.502-2.918,31.216-16.632,34.134-34.134l0,0c2.918,17.502,16.632,31.216,34.134,34.134l0,0
	C59.292,88.24,45.578,101.962,42.66,119.456z"/>
<polygon style="fill:#F7A6A6;" points="503.475,170.657 307.202,127.989 256,170.657 204.798,127.989 8.525,170.657 8.525,204.792 
	503.475,204.792 "/>
<g>
	<rect x="247.466" y="238.926" style="fill:#CFCFCF;" width="17.067" height="110.937"/>
	<rect x="179.197" y="238.926" style="fill:#CFCFCF;" width="17.067" height="110.937"/>
	<rect x="110.929" y="238.926" style="fill:#CFCFCF;" width="17.067" height="85.336"/>
	<rect x="315.735" y="238.926" style="fill:#CFCFCF;" width="17.067" height="110.937"/>
	<rect x="384.004" y="238.926" style="fill:#CFCFCF;" width="17.067" height="85.336"/>
	<path style="fill:#CFCFCF;" d="M37.539,281.595c3.533,5.88,7.339,11.563,11.367,17.067h414.213
		c4.028-5.504,7.834-11.188,11.367-17.067H37.539z"/>
</g>
<g>
	<path style="fill:#FFCFCF;" d="M236.432,441.258c-30.26,0.58-60.273-5.521-87.896-17.878l7.271-15.437
		c25.353,11.264,52.883,16.803,80.626,16.214L236.432,441.258L236.432,441.258z"/>
	<path style="fill:#FFCFCF;" d="M132.066,414.284c-4.514-2.799-8.73-6.033-12.604-9.66l12.041-12.092
		c3.047,2.765,6.332,5.248,9.822,7.433L132.066,414.284z"/>
</g>
<path style="fill:#F59A9A;" d="M503.475,170.657l-106.141-23.041c-42.276,32.129-111.005,48.727-174.854,57.175h280.995V170.657z"/>
<path d="M8.525,196.258c-4.711,0-8.534,3.832-8.525,8.542c0,0.512,0.043,1.015,0.137,1.519
	c20.455,112.797,118.703,194.788,233.335,194.746h45.057c114.632,0.043,212.88-81.948,233.335-194.746
	c0.845-4.634-2.227-9.08-6.87-9.925c-0.503-0.094-1.007-0.137-1.519-0.137L8.525,196.258L8.525,196.258z M278.529,383.998h-45.058
	c-68.073,0.026-132.322-31.489-173.975-85.336h51.432v25.601h17.067v-25.601h51.202v51.202h17.067v-51.202h51.202v51.202h17.067
	v-51.202h51.202v51.202h17.067v-51.202h51.202v25.601h17.067v-25.601h51.432C410.851,352.509,346.601,384.023,278.529,383.998z
	 M464.562,281.595h-63.49v-42.668h-17.067v42.668h-51.202v-42.668h-17.067v42.668h-51.202v-42.668h-17.067v42.668h-51.202v-42.668
	h-17.067v42.668h-51.202v-42.668h-17.067v42.668H47.447c-13.278-20.984-22.896-44.068-28.451-68.269h474.008
	C487.449,237.527,477.831,260.619,464.562,281.595L464.562,281.595z"/>
<path d="M7.126,93.735c13.91,2.321,24.799,13.219,27.12,27.128c0.785,4.651,5.188,7.774,9.839,6.989
	c3.584-0.606,6.383-3.413,6.989-6.989c2.321-13.91,13.21-24.807,27.12-27.128c4.651-0.785,7.774-5.188,6.989-9.839
	c-0.606-3.584-3.413-6.383-6.989-6.989c-13.901-2.321-24.799-13.219-27.12-27.128c-0.785-4.642-5.188-7.774-9.839-6.989
	c-3.584,0.606-6.383,3.413-6.989,6.989c-2.321,13.91-13.21,24.807-27.12,27.128c-4.651,0.785-7.774,5.188-6.989,9.839
	C0.742,90.331,3.55,93.13,7.126,93.735z M42.66,73.135c3.328,4.736,7.45,8.858,12.186,12.186c-4.736,3.328-8.858,7.45-12.186,12.186
	c-3.328-4.736-7.45-8.858-12.186-12.186C35.21,82.002,39.331,77.871,42.66,73.135z"/>
<path d="M278.776,469.334c91.054-0.119,174.308-51.449,215.312-132.749l-15.361-7.578c-38.094,75.488-115.4,123.14-199.951,123.26
	h-45.552c-84.551-0.119-161.857-47.771-199.951-123.26l-15.361,7.578c41.004,81.308,124.258,132.629,215.312,132.749H278.776z"/>
<path d="M10.343,178.995l192.194-41.815l47.993,39.997c3.166,2.645,7.774,2.645,10.94,0l47.993-39.997l192.194,41.815l3.635-16.675
	l-196.273-42.668c-2.577-0.563-5.265,0.094-7.288,1.784L256,159.564l-45.732-38.111c-2.022-1.69-4.711-2.347-7.288-1.784
	L6.707,162.337L10.343,178.995z"/>
<g>
</g>
<g>
</g>
<g>
</g>
<g>
</g>
<g>
</g>
<g>
</g>
<g>
</g>
<g>
</g>
<g>
</g>
<g>
</g>
<g>
</g>
<g>
</g>
<g>
</g>
<g>
</g>
<g>
</g>
</svg>
